<svg width="13" height="12" viewBox="0 0 13 12" fill="none" xmlns="http://www.w3.org/2000/svg">
<path d="M10.6116 2.86532C8.92891 2.70719 7.23614 2.62573 5.54843 2.62573C4.54793 2.62573 3.54743 2.67365 2.54693 2.76948L1.51611 2.86532" stroke="#FFFCE2" stroke-width="1.5" stroke-linecap="round" stroke-linejoin="round"/>
<path d="M4.29492 2.38138L4.40609 1.75367C4.48694 1.29846 4.54757 0.958252 5.40154 0.958252H6.72543C7.57939 0.958252 7.64508 1.31763 7.72088 1.75846L7.83204 2.38138" stroke="#FFFCE2" stroke-width="1.5" stroke-linecap="round" stroke-linejoin="round"/>
<path d="M9.52519 4.37964L9.19674 9.20485C9.14116 9.95714 9.09568 10.5417 7.68589 10.5417H4.44184C3.03205 10.5417 2.98657 9.95714 2.93099 9.20485L2.60254 4.37964" stroke="#FFFCE2" stroke-width="1.5" stroke-linecap="round" stroke-linejoin="round"/>
<path d="M5.21973 7.90625H6.90239" stroke="#FFFCE2" stroke-width="1.5" stroke-linecap="round" stroke-linejoin="round"/>
<path d="M4.80029 5.9895H7.32681" stroke="#FFFCE2" stroke-width="1.5" stroke-linecap="round" stroke-linejoin="round"/>
</svg>
