<svg width="22" height="22" viewBox="0 0 22 22" fill="none" xmlns="http://www.w3.org/2000/svg">
<g clip-path="url(#clip0_731_1028)">
<path d="M7.95041 -0.0587505C7.25138 1.36202 6.88164 2.93173 6.88164 4.5453C6.88164 10.3186 11.566 15.0153 17.3242 15.0153C19.0177 15.0153 20.6542 14.6107 22.1208 13.8469C20.3464 17.0484 16.9643 19.1179 13.1564 19.1179C7.48989 19.1179 2.88059 14.4965 2.88059 8.81506C2.88059 5.09888 4.86874 1.75424 7.95041 -0.0587505ZM10.3504 -1.99917C5.54961 -0.750517 2 3.61109 2 8.81506C2 14.9921 6.99554 20 13.1564 20C18.4276 20 22.8339 16.3302 24 11.4034C22.2776 13.0906 19.9238 14.1324 17.325 14.1324C12.0439 14.1324 7.76224 9.83947 7.76224 4.54448C7.76224 2.01158 8.7493 -0.286305 10.3512 -2L10.3504 -1.99917Z" fill="#474536" fill-opacity="0.88"/>
<path d="M10.3477 -2.00781L10.5342 -1.8291C8.97347 -0.159476 8.0127 2.07842 8.0127 4.54492C8.01294 9.70226 12.1829 13.8828 17.3252 13.8828C19.8557 13.8828 22.1475 12.8681 23.8252 11.2246L24.4424 10.6201L24.2432 11.4609C23.0511 16.4971 18.5468 20.25 13.1562 20.25C6.85691 20.2499 1.7502 15.1298 1.75 8.81543C1.75 3.49487 5.37912 -0.964527 10.2871 -2.24121L10.3477 -2.00781ZM7.38281 0.605469C4.77528 2.44579 3.13086 5.47698 3.13086 8.81543C3.13106 14.3592 7.62863 18.8681 13.1562 18.8682C16.5853 18.8682 19.6582 17.1472 21.4727 14.4268C20.1746 14.976 18.7696 15.2656 17.3242 15.2656C11.4274 15.2656 6.63184 10.4556 6.63184 4.54492C6.63188 3.18117 6.88997 1.84783 7.38281 0.605469Z" stroke="#504D3E" stroke-opacity="0.88" stroke-width="0.5"/>
</g>
<defs>
<clipPath id="clip0_731_1028">
<rect width="22" height="22" fill="white"/>
</clipPath>
</defs>
</svg>
