<svg width="54" height="54" viewBox="0 0 54 54" fill="none" xmlns="http://www.w3.org/2000/svg">
<path d="M20.25 22.5C22.7353 22.5 24.75 20.4853 24.75 18C24.75 15.5147 22.7353 13.5 20.25 13.5C17.7647 13.5 15.75 15.5147 15.75 18C15.75 20.4853 17.7647 22.5 20.25 22.5Z" stroke="#292D32" stroke-width="1.5" stroke-linecap="round" stroke-linejoin="round"/>
<path d="M29.25 4.5H20.25C9 4.5 4.5 9 4.5 20.25V33.75C4.5 45 9 49.5 20.25 49.5H33.75C45 49.5 49.5 45 49.5 33.75V22.5" stroke="#292D32" stroke-width="1.5" stroke-linecap="round" stroke-linejoin="round"/>
<path d="M35.4375 11.25H47.8125" stroke="#292D32" stroke-width="1.5" stroke-linecap="round"/>
<path d="M41.625 17.4375V5.0625" stroke="#292D32" stroke-width="1.5" stroke-linecap="round"/>
<path d="M6.00732 42.6375L17.0998 35.19C18.8773 33.9975 21.4423 34.1325 23.0398 35.505L23.7823 36.1575C25.5373 37.665 28.3723 37.665 30.1273 36.1575L39.4873 28.125C41.2423 26.6175 44.0773 26.6175 45.8323 28.125L49.4998 31.275" stroke="#292D32" stroke-width="1.5" stroke-linecap="round" stroke-linejoin="round"/>
</svg>
