<svg width="23" height="23" viewBox="0 0 23 23" fill="none" xmlns="http://www.w3.org/2000/svg">
<path d="M9.14354 21.5833C10.2621 21.5833 11.1689 20.6767 11.1689 19.5583C11.1689 18.4399 10.2621 17.5333 9.14354 17.5333C8.02495 17.5333 7.11816 18.4399 7.11816 19.5583C7.11816 20.6767 8.02495 21.5833 9.14354 21.5833Z" stroke="black" stroke-width="1.5" stroke-linecap="round" stroke-linejoin="round"/>
<path d="M17.9673 21.5833C19.0858 21.5833 19.9926 20.6767 19.9926 19.5583C19.9926 18.4399 19.0858 17.5333 17.9673 17.5333C16.8487 17.5333 15.9419 18.4399 15.9419 19.5583C15.9419 20.6767 16.8487 21.5833 17.9673 21.5833Z" stroke="black" stroke-width="1.5" stroke-linecap="round" stroke-linejoin="round"/>
<path d="M4.4483 3.49404L6.8416 11.0702C7.20952 12.2345 7.39289 12.8167 7.74653 13.2476C8.05611 13.6286 8.45975 13.9226 8.91579 14.1047C9.43374 14.3107 10.0434 14.3107 11.265 14.3107H15.8552C17.0768 14.3107 17.6864 14.3107 18.2032 14.1047C18.6604 13.9226 19.0629 13.6286 19.3737 13.2476C19.7261 12.8167 19.9095 12.2345 20.2786 11.0702L20.7656 9.52737L21.0514 8.61547L21.4455 7.36547C21.5861 6.91964 21.6197 6.44695 21.5436 5.9857C21.4675 5.52446 21.2838 5.08763 21.0073 4.71061C20.7309 4.33358 20.3695 4.02697 19.9525 3.81561C19.5354 3.60425 19.0744 3.49408 18.6069 3.49404H4.4483ZM4.4483 3.49404L4.4352 3.45C4.38492 3.28161 4.32933 3.11486 4.2685 2.95C4.02745 2.33993 3.61866 1.8105 3.08939 1.42289C2.56012 1.03527 1.93195 0.805295 1.27748 0.759524C1.15484 0.75 1.02029 0.75 0.75 0.75" stroke="black" stroke-width="1.5" stroke-linecap="round" stroke-linejoin="round"/>
</svg>
