<svg width="141" height="24" viewBox="0 0 141 24" fill="none" xmlns="http://www.w3.org/2000/svg">
<path d="M11.9999 13.43C13.723 13.43 15.1199 12.0331 15.1199 10.31C15.1199 8.58687 13.723 7.19 11.9999 7.19C10.2768 7.19 8.87988 8.58687 8.87988 10.31C8.87988 12.0331 10.2768 13.43 11.9999 13.43Z" stroke="#2B2A21" stroke-width="1.5"/>
<path d="M3.6202 8.49C5.5902 -0.169998 18.4202 -0.159997 20.3802 8.5C21.5302 13.58 18.3702 17.88 15.6002 20.54C13.5902 22.48 10.4102 22.48 8.3902 20.54C5.6302 17.88 2.4702 13.57 3.6202 8.49Z" stroke="#2B2A21" stroke-width="1.5"/>
<path d="M31.375 18.1577C30.6328 18.1577 30.1782 17.7031 30.1782 16.9146V5.69824C30.1782 4.90967 30.6328 4.45508 31.375 4.45508C32.1265 4.45508 32.5718 4.90967 32.5718 5.69824V16.9146C32.5718 17.7031 32.1265 18.1577 31.375 18.1577ZM35.9209 18.1855C35.2437 18.1855 34.7612 17.7495 34.7612 16.9702V5.64258C34.7612 4.86328 35.2437 4.42725 35.9209 4.42725C36.5981 4.42725 37.0713 4.86328 37.0713 5.64258V16.9702C37.0713 17.7495 36.5981 18.1855 35.9209 18.1855ZM40.2441 6.78369C39.5298 6.78369 38.9639 6.22705 38.9639 5.53125C38.9639 4.82617 39.5298 4.27881 40.2441 4.27881C40.9678 4.27881 41.5337 4.82617 41.5337 5.53125C41.5337 6.22705 40.9678 6.78369 40.2441 6.78369ZM40.2441 18.1855C39.5391 18.1855 39.0938 17.7217 39.0938 16.9702V9.18652C39.0938 8.44434 39.5391 7.97119 40.2441 7.97119C40.9492 7.97119 41.4038 8.44434 41.4038 9.1958V16.9702C41.4038 17.7217 40.9492 18.1855 40.2441 18.1855ZM47.1372 18.1948C45.0591 18.1948 43.6025 17.397 43.1294 16.2188C43.0645 16.0518 43.0366 15.9033 43.0366 15.7642C43.0366 15.2075 43.4448 14.855 44.0015 14.855C44.3818 14.855 44.7065 15.0312 45.0034 15.4209C45.5229 16.1724 46.1167 16.5063 47.2207 16.5063C48.2969 16.5063 49.0112 16.0518 49.0112 15.3096C49.0112 14.7158 48.6401 14.3911 47.6289 14.1592L46.0332 13.7974C44.1128 13.3613 43.1665 12.415 43.1665 10.9863C43.1665 9.15869 44.7437 7.96191 47.1743 7.96191C49.0669 7.96191 50.5327 8.88965 50.8389 10.0215C50.8667 10.1421 50.8853 10.2534 50.8853 10.3647C50.8853 10.8472 50.5791 11.1904 49.9946 11.1904C49.6606 11.1904 49.3267 11.0698 49.1133 10.7637C48.6587 10.0864 48.0928 9.65967 47.1187 9.65967C46.1074 9.65967 45.4116 10.1514 45.4116 10.8564C45.4116 11.4316 45.8384 11.8213 46.8589 12.0532L48.4268 12.3965C50.5049 12.8696 51.3306 13.6211 51.3306 15.0776C51.3306 16.9609 49.6421 18.1948 47.1372 18.1948ZM54.0117 18.1855C53.3345 18.1855 52.8521 17.7495 52.8521 16.9702V5.61475C52.8521 4.88184 53.2881 4.42725 53.9932 4.42725C54.7075 4.42725 55.1343 4.88184 55.1343 5.61475V9.85449H55.1807C55.7095 8.65771 56.7949 7.98047 58.2886 7.98047C60.4595 7.98047 61.7305 9.40918 61.7305 11.6636V16.9702C61.7305 17.7495 61.248 18.1855 60.5708 18.1855C59.8936 18.1855 59.4204 17.7495 59.4204 16.9702V12.1367C59.4204 10.7637 58.7339 9.93799 57.3979 9.93799C56.0063 9.93799 55.1621 10.9028 55.1621 12.3501V16.9702C55.1621 17.7495 54.689 18.1855 54.0117 18.1855ZM66.4712 18.1577C64.5693 18.1577 63.187 16.9609 63.187 15.189C63.187 13.4448 64.5322 12.3965 66.9258 12.248L69.5327 12.0996V11.3945C69.5327 10.3647 68.8369 9.771 67.6958 9.771C66.7959 9.771 66.2114 10.0771 65.6362 10.9214C65.395 11.2368 65.0889 11.3853 64.6992 11.3853C64.1333 11.3853 63.7251 11.0142 63.7251 10.4575C63.7251 10.2441 63.7808 10.04 63.8828 9.82666C64.3838 8.68555 65.9053 7.96191 67.7886 7.96191C70.2285 7.96191 71.8149 9.25146 71.8149 11.2275V17.0259C71.8149 17.7681 71.3418 18.1855 70.6924 18.1855C70.0615 18.1855 69.6255 17.8052 69.5884 17.1187V16.4321H69.542C68.9761 17.499 67.7422 18.1577 66.4712 18.1577ZM67.1763 16.4136C68.4751 16.4136 69.5327 15.5415 69.5327 14.354V13.6025L67.2505 13.7417C66.1372 13.8159 65.4971 14.3169 65.4971 15.0962C65.4971 15.9033 66.1743 16.4136 67.1763 16.4136ZM74.8301 18.1855C74.1528 18.1855 73.6797 17.7495 73.6797 16.9702V9.14014C73.6797 8.42578 74.0972 7.97119 74.7837 7.97119C75.4609 7.97119 75.9248 8.42578 75.9248 9.14014V9.82666H75.9712C76.5 8.65771 77.5205 7.98047 79.0327 7.98047C81.2036 7.98047 82.4375 9.37207 82.4375 11.645V16.9702C82.4375 17.7495 81.9644 18.1855 81.2871 18.1855C80.6099 18.1855 80.1274 17.7495 80.1274 16.9702V12.1089C80.1274 10.7173 79.478 9.93799 78.1606 9.93799C76.834 9.93799 75.9897 10.8936 75.9897 12.3037V16.9702C75.9897 17.7495 75.5073 18.1855 74.8301 18.1855ZM85.397 13.5933C84.7661 13.5933 84.293 13.2036 84.293 12.5635C84.293 11.9233 84.7661 11.5337 85.397 11.5337H89.5903C90.2305 11.5337 90.6943 11.9233 90.6943 12.5635C90.6943 13.2036 90.2305 13.5933 89.5903 13.5933H85.397ZM94.0342 18.1855C93.292 18.1855 92.8374 17.7217 92.8374 16.9424V5.85596C92.8374 5.07666 93.292 4.61279 94.0342 4.61279H98.1533C101.048 4.61279 102.783 6.21777 102.783 8.77832C102.783 10.5225 101.892 11.9512 100.343 12.5542L102.458 16.2651C102.662 16.6084 102.718 16.8125 102.718 17.0908C102.718 17.7217 102.198 18.1855 101.512 18.1855C100.946 18.1855 100.667 17.9814 100.296 17.3228L97.9121 12.9624H95.231V16.9424C95.231 17.7217 94.7764 18.1855 94.0342 18.1855ZM95.231 11.1255H97.9307C99.4521 11.1255 100.333 10.2812 100.333 8.83398C100.333 7.42383 99.3965 6.55176 97.8843 6.55176H95.231V11.1255ZM108.794 18.1948C105.789 18.1948 104.017 16.3115 104.017 13.1201C104.017 9.98438 105.826 7.96191 108.665 7.96191C111.355 7.96191 113.192 9.87305 113.192 12.5449C113.192 13.2314 112.802 13.6396 112.116 13.6396H106.317V13.7139C106.317 15.356 107.273 16.4136 108.776 16.4136C109.815 16.4136 110.492 16.0518 111.234 15.1055C111.476 14.8364 111.689 14.7344 112.014 14.7344C112.533 14.7344 112.941 15.0684 112.941 15.625C112.941 15.8013 112.886 16.0054 112.784 16.2095C112.134 17.4619 110.668 18.1948 108.794 18.1948ZM106.336 12.1182H110.928C110.882 10.6895 109.973 9.75244 108.674 9.75244C107.375 9.75244 106.429 10.708 106.336 12.1182ZM115.836 18.1855C115.14 18.1855 114.686 17.7402 114.686 16.9702V9.14941C114.686 8.39795 115.14 7.97119 115.79 7.97119C116.439 7.97119 116.903 8.39795 116.903 9.14941V9.87305H116.949C117.376 8.73193 118.415 7.98047 119.751 7.98047C121.143 7.98047 122.135 8.69482 122.497 9.95654H122.553C123.026 8.74121 124.195 7.98047 125.614 7.98047C127.553 7.98047 128.824 9.28857 128.824 11.2554V16.9702C128.824 17.7402 128.36 18.1855 127.674 18.1855C126.978 18.1855 126.514 17.7402 126.514 16.9702V11.8213C126.514 10.6152 125.883 9.92871 124.751 9.92871C123.638 9.92871 122.877 10.7451 122.877 11.9233V16.9702C122.877 17.7402 122.441 18.1855 121.755 18.1855C121.059 18.1855 120.632 17.7402 120.632 16.9702V11.7007C120.632 10.606 119.964 9.92871 118.888 9.92871C117.775 9.92871 116.996 10.7915 116.996 11.979V16.9702C116.996 17.7402 116.522 18.1855 115.836 18.1855ZM135.031 18.1948C132.146 18.1948 130.271 16.2744 130.271 13.083C130.271 9.91016 132.164 7.96191 135.031 7.96191C137.897 7.96191 139.79 9.90088 139.79 13.083C139.79 16.2744 137.916 18.1948 135.031 18.1948ZM135.031 16.3672C136.497 16.3672 137.443 15.1797 137.443 13.083C137.443 10.9956 136.497 9.79883 135.031 9.79883C133.574 9.79883 132.619 10.9956 132.619 13.083C132.619 15.1797 133.565 16.3672 135.031 16.3672Z" fill="black" fill-opacity="0.82"/>
</svg>
