<svg width="92" height="73" viewBox="0 0 92 73" fill="none" xmlns="http://www.w3.org/2000/svg">
<g filter="url(#filter0_d_653_944)">
<path d="M34.1295 55.21C30.7975 55.21 27.8995 54.608 25.4355 53.404C22.9715 52.172 21.0815 50.436 19.7655 48.196C18.4495 45.956 17.7915 43.352 17.7915 40.384C17.7915 36.268 18.5615 32.614 20.1015 29.422C21.6695 26.23 23.7835 23.766 26.4435 22.03C29.1035 20.266 32.0575 19.384 35.3055 19.384C38.3295 19.384 40.6255 20.168 42.1935 21.736C43.7615 23.276 44.5455 25.32 44.5455 27.868C44.5455 29.576 44.2375 30.948 43.6215 31.984C43.0335 33.02 42.1795 33.538 41.0595 33.538C40.2755 33.538 39.6595 33.356 39.2115 32.992C38.7635 32.628 38.5395 32.096 38.5395 31.396C38.5395 31.144 38.5955 30.682 38.7075 30.01C38.8755 29.17 38.9595 28.498 38.9595 27.994C38.9595 25.446 37.6015 24.172 34.8855 24.172C33.0375 24.172 31.2735 24.774 29.5935 25.978C27.9135 27.182 26.5555 28.96 25.5195 31.312C24.4835 33.636 23.9655 36.408 23.9655 39.628C23.9655 42.988 24.9035 45.592 26.7795 47.44C28.6555 49.26 31.4275 50.17 35.0955 50.17C36.9155 50.17 38.7495 49.946 40.5975 49.498C42.4735 49.022 44.5455 48.308 46.8135 47.356C47.2335 47.188 47.5835 47.104 47.8635 47.104C48.3115 47.104 48.6475 47.272 48.8715 47.608C49.0955 47.944 49.2075 48.378 49.2075 48.91C49.2075 50.618 48.2835 51.878 46.4355 52.69C44.4475 53.558 42.3755 54.202 40.2195 54.622C38.0915 55.014 36.0615 55.21 34.1295 55.21Z" fill="black"/>
<path d="M60.1295 62.21C56.7975 62.21 53.8995 61.608 51.4355 60.404C48.9715 59.172 47.0815 57.436 45.7655 55.196C44.4495 52.956 43.7915 50.352 43.7915 47.384C43.7915 43.268 44.5615 39.614 46.1015 36.422C47.6695 33.23 49.7835 30.766 52.4435 29.03C55.1035 27.266 58.0575 26.384 61.3055 26.384C64.3295 26.384 66.6255 27.168 68.1935 28.736C69.7615 30.276 70.5455 32.32 70.5455 34.868C70.5455 36.576 70.2375 37.948 69.6215 38.984C69.0335 40.02 68.1795 40.538 67.0595 40.538C66.2755 40.538 65.6595 40.356 65.2115 39.992C64.7635 39.628 64.5395 39.096 64.5395 38.396C64.5395 38.144 64.5955 37.682 64.7075 37.01C64.8755 36.17 64.9595 35.498 64.9595 34.994C64.9595 32.446 63.6015 31.172 60.8855 31.172C59.0375 31.172 57.2735 31.774 55.5935 32.978C53.9135 34.182 52.5555 35.96 51.5195 38.312C50.4835 40.636 49.9655 43.408 49.9655 46.628C49.9655 49.988 50.9035 52.592 52.7795 54.44C54.6555 56.26 57.4275 57.17 61.0955 57.17C62.9155 57.17 64.7495 56.946 66.5975 56.498C68.4735 56.022 70.5455 55.308 72.8135 54.356C73.2335 54.188 73.5835 54.104 73.8635 54.104C74.3115 54.104 74.6475 54.272 74.8715 54.608C75.0955 54.944 75.2075 55.378 75.2075 55.91C75.2075 57.618 74.2835 58.878 72.4355 59.69C70.4475 60.558 68.3755 61.202 66.2195 61.622C64.0915 62.014 62.0615 62.21 60.1295 62.21Z" fill="black"/>
</g>
<defs>
<filter id="filter0_d_653_944" x="11.9915" y="17.584" width="69.016" height="54.426" filterUnits="userSpaceOnUse" color-interpolation-filters="sRGB">
<feFlood flood-opacity="0" result="BackgroundImageFix"/>
<feColorMatrix in="SourceAlpha" type="matrix" values="0 0 0 0 0 0 0 0 0 0 0 0 0 0 0 0 0 0 127 0" result="hardAlpha"/>
<feOffset dy="4"/>
<feGaussianBlur stdDeviation="2.9"/>
<feComposite in2="hardAlpha" operator="out"/>
<feColorMatrix type="matrix" values="0 0 0 0 0 0 0 0 0 0 0 0 0 0 0 0 0 0 0.25 0"/>
<feBlend mode="normal" in2="BackgroundImageFix" result="effect1_dropShadow_653_944"/>
<feBlend mode="normal" in="SourceGraphic" in2="effect1_dropShadow_653_944" result="shape"/>
</filter>
</defs>
</svg>
