<svg width="23" height="15" viewBox="0 0 23 15" fill="none" xmlns="http://www.w3.org/2000/svg">
<path d="M18.34 4.2333V8.31041C18.34 10.7487 16.58 11.7937 13.94 11.7937H5.14999C4.69999 11.7937 4.27 11.7621 3.87 11.6908C3.62 11.6592 3.38 11.6038 3.16 11.5404C1.66 11.0971 0.75 10.0679 0.75 8.31041V4.2333C0.75 1.79497 2.50999 0.75 5.14999 0.75H13.94C16.18 0.75 17.79 1.50208 18.22 3.22C18.29 3.53666 18.34 3.86122 18.34 4.2333Z" stroke="#292D32" stroke-width="1.5" stroke-miterlimit="10" stroke-linecap="round" stroke-linejoin="round"/>
<path d="M21.3411 6.60852V10.6856C21.3411 13.124 19.5811 14.1689 16.9411 14.1689H8.15109C7.41109 14.1689 6.7411 14.0898 6.1611 13.9156C4.9711 13.5673 4.16109 12.8469 3.87109 11.6911C4.27109 11.7623 4.70109 11.7939 5.15109 11.7939H13.9411C16.5811 11.7939 18.3411 10.749 18.3411 8.31063V4.23352C18.3411 3.86144 18.3011 3.52896 18.2211 3.22021C20.1211 3.53688 21.3411 4.59769 21.3411 6.60852Z" stroke="#292D32" stroke-width="1.5" stroke-miterlimit="10" stroke-linecap="round" stroke-linejoin="round"/>
<path d="M9.53845 8.36581C10.9965 8.36581 12.1785 7.43008 12.1785 6.2758C12.1785 5.12153 10.9965 4.18579 9.53845 4.18579C8.08042 4.18579 6.89844 5.12153 6.89844 6.2758C6.89844 7.43008 8.08042 8.36581 9.53845 8.36581Z" stroke="#292D32" stroke-width="1.5" stroke-miterlimit="10" stroke-linecap="round" stroke-linejoin="round"/>
<path d="M3.81982 4.53418V8.01753" stroke="#292D32" stroke-width="1.5" stroke-miterlimit="10" stroke-linecap="round" stroke-linejoin="round"/>
<path d="M15.2617 4.53442V8.01778" stroke="#292D32" stroke-width="1.5" stroke-miterlimit="10" stroke-linecap="round" stroke-linejoin="round"/>
</svg>
