<svg width="24" height="23" viewBox="0 0 24 23" fill="none" xmlns="http://www.w3.org/2000/svg">
<path d="M12.0201 2.78876C8.71009 2.78876 6.02009 5.36667 6.02009 8.53876V11.3083C6.02009 11.8929 5.76009 12.7842 5.45009 13.2825L4.30009 15.1129C3.59009 16.2438 4.08009 17.4992 5.38009 17.9208C9.69009 19.3008 14.3401 19.3008 18.6501 17.9208C19.8601 17.5375 20.3901 16.1671 19.7301 15.1129L18.5801 13.2825C18.2801 12.7842 18.0201 11.8929 18.0201 11.3083V8.53876C18.0201 5.37626 15.3201 2.78876 12.0201 2.78876Z" stroke="#292D32" stroke-width="1.5" stroke-miterlimit="10" stroke-linecap="round"/>
<path d="M13.8699 3.06666C13.5599 2.98041 13.2399 2.91333 12.9099 2.87499C11.9499 2.75999 11.0299 2.82708 10.1699 3.06666C10.4599 2.35749 11.1799 1.85916 12.0199 1.85916C12.8599 1.85916 13.5799 2.35749 13.8699 3.06666Z" stroke="#292D32" stroke-width="1.5" stroke-miterlimit="10" stroke-linecap="round" stroke-linejoin="round"/>
<path d="M15.02 18.2658C15.02 19.8471 13.67 21.1408 12.02 21.1408C11.2 21.1408 10.44 20.815 9.90002 20.2975C9.36002 19.78 9.02002 19.0517 9.02002 18.2658" stroke="#292D32" stroke-width="1.5" stroke-miterlimit="10"/>
</svg>
