<svg width="22" height="22" viewBox="0 0 22 22" fill="none" xmlns="http://www.w3.org/2000/svg">
<path d="M11.1098 11.715C11.0457 11.7058 10.9632 11.7058 10.8898 11.715C9.2765 11.66 7.99316 10.34 7.99316 8.71748C7.99316 7.05832 9.3315 5.71082 10.9998 5.71082C12.659 5.71082 14.0065 7.05832 14.0065 8.71748C13.9973 10.34 12.7232 11.66 11.1098 11.715Z" stroke="#292D32" stroke-width="1.5" stroke-linecap="round" stroke-linejoin="round"/>
<path d="M17.178 17.7651C15.5463 19.2592 13.383 20.1667 10.9996 20.1667C8.61629 20.1667 6.45296 19.2592 4.82129 17.7651C4.91296 16.9034 5.46296 16.0601 6.44379 15.4001C8.95546 13.7317 13.0621 13.7317 15.5555 15.4001C16.5363 16.0601 17.0863 16.9034 17.178 17.7651Z" stroke="#292D32" stroke-width="1.5" stroke-linecap="round" stroke-linejoin="round"/>
<path d="M10.9997 20.1667C16.0623 20.1667 20.1663 16.0627 20.1663 11C20.1663 5.93743 16.0623 1.83337 10.9997 1.83337C5.93706 1.83337 1.83301 5.93743 1.83301 11C1.83301 16.0627 5.93706 20.1667 10.9997 20.1667Z" stroke="#292D32" stroke-width="1.5" stroke-linecap="round" stroke-linejoin="round"/>
</svg>
