<svg width="22" height="22" viewBox="0 0 22 22" fill="none" xmlns="http://www.w3.org/2000/svg">
<path d="M12.5855 3.21748L14.1988 6.44415C14.4188 6.89332 15.0055 7.32415 15.5005 7.40665L18.4247 7.89248C20.2947 8.20415 20.7347 9.56082 19.3872 10.8991L17.1138 13.1725C16.7288 13.5575 16.518 14.3 16.6372 14.8316L17.288 17.6458C17.8013 19.8733 16.6188 20.735 14.648 19.5708L11.9072 17.9483C11.4122 17.655 10.5963 17.655 10.0922 17.9483L7.35134 19.5708C5.38967 20.735 4.19801 19.8642 4.71134 17.6458L5.36217 14.8316C5.48134 14.3 5.27051 13.5575 4.88551 13.1725L2.61217 10.8991C1.27384 9.56082 1.70467 8.20415 3.57467 7.89248L6.49884 7.40665C6.98467 7.32415 7.57134 6.89332 7.79134 6.44415L9.40467 3.21748C10.2847 1.46665 11.7147 1.46665 12.5855 3.21748Z" stroke="#504D3E" stroke-opacity="0.88" stroke-width="1.5" stroke-linecap="round" stroke-linejoin="round"/>
</svg>
